<?xml version="1.0" encoding="UTF-8"?>
<svg width="102px" height="102px" viewBox="0 0 102 102" version="1.1" xmlns="http://www.w3.org/2000/svg" xmlns:xlink="http://www.w3.org/1999/xlink">
    <!-- Generator: Sketch 52.3 (67297) - http://www.bohemiancoding.com/sketch -->
    <title>logo-footer</title>
    <desc>Created with Sketch.</desc>
    <g id="Page-1" stroke="none" stroke-width="1" fill="none" fill-rule="evenodd">
        <g id="Home" transform="translate(-669.000000, -1779.000000)">
            <g id="футър" transform="translate(0.000000, 1779.000000)">
                <g id="logo-footer" transform="translate(669.000000, 0.000000)">
                    <circle id="Oval" fill="#FFFFFF" cx="51" cy="51" r="51"></circle>
                    <g id="PatentZnak" transform="translate(19.000000, 12.000000)" fill="#009BFF">
                        <path d="M3.54826862,55.890625 C1.27813977,51.2526544 0,45.99726 0,40.4404461 C0,25.2284859 9.59558663,12.2966181 22.7586207,7.984375 C22.7871337,28.5732697 16.801815,44.8401981 3.54826862,55.890625 Z M62.4517314,55.890625 C49.198185,44.8401981 43.2128663,28.5732697 43.2413793,7.984375 C56.4044134,12.2966181 66,25.2284859 66,40.4404461 C66,45.99726 64.7218602,51.2526544 62.4517314,55.890625 Z M6.82758621,61.2139196 C22.8187181,53.9966023 39.9513738,54.2547182 58.0344828,61.1593181 C49.0737658,71.9803302 33.5725583,76.1697496 19.6342096,70.4167436 C14.5438952,68.3170702 10.2178629,65.1154404 6.82758621,61.2139196 Z M5.98637005,59.3125 L4.55172414,57.3569825 C23.0865791,41.1339703 29.9805822,22.0311911 30.4234931,0 L33.624968,0 C33.7501384,23.4710746 43.426777,42.204154 60.3103448,57.361847 L59.1645538,59.3027711 C41.3422076,51.830943 23.5054186,51.3931405 5.98637005,59.3125 Z" id="Combined-Shape"></path>
                    </g>
                </g>
            </g>
        </g>
    </g>
</svg>